<svg width="54" height="54" viewBox="0 0 54 54" fill="none" xmlns="http://www.w3.org/2000/svg">
<path d="M13.0607 0.93934C12.4749 0.353553 11.5251 0.353553 10.9393 0.93934L1.3934 10.4853C0.80761 11.0711 0.80761 12.0208 1.3934 12.6066C1.97918 13.1924 2.92893 13.1924 3.51472 12.6066L12 4.12132L20.4853 12.6066C21.0711 13.1924 22.0208 13.1924 22.6066 12.6066C23.1924 12.0208 23.1924 11.0711 22.6066 10.4853L13.0607 0.93934ZM13.5 52L13.5 2L10.5 2L10.5 52L13.5 52Z" fill="black"/>
<path d="M40.9393 53.0607C41.5251 53.6464 42.4749 53.6464 43.0607 53.0607L52.6066 43.5147C53.1924 42.9289 53.1924 41.9792 52.6066 41.3934C52.0208 40.8076 51.0711 40.8076 50.4853 41.3934L42 49.8787L33.5147 41.3934C32.9289 40.8076 31.9792 40.8076 31.3934 41.3934C30.8076 41.9792 30.8076 42.9289 31.3934 43.5147L40.9393 53.0607ZM43.5 52L43.5 2L40.5 2L40.5 52L43.5 52Z" fill="black"/>
</svg>
