<svg width="290" height="220" viewBox="0 0 290 220" fill="none" xmlns="http://www.w3.org/2000/svg">
<path d="M73.364 2.96937C69.8492 -0.545352 64.1507 -0.545351 60.636 2.96937L3.36038 60.245C-0.154335 63.7597 -0.154335 69.4582 3.36038 72.9729C6.8751 76.4877 12.5736 76.4877 16.0883 72.9729L67 22.0613L117.912 72.9729C121.426 76.4877 127.125 76.4877 130.64 72.9729C134.154 69.4582 134.154 63.7597 130.64 60.245L73.364 2.96937ZM76 211L76 9.33333L58 9.33333L58 211L76 211Z" fill="black"/>
<path d="M216.636 217.364C220.151 220.879 225.849 220.879 229.364 217.364L286.64 160.088C290.154 156.574 290.154 150.875 286.64 147.36C283.125 143.846 277.426 143.846 273.912 147.36L223 198.272L172.088 147.36C168.574 143.846 162.875 143.846 159.36 147.36C155.846 150.875 155.846 156.574 159.36 160.088L216.636 217.364ZM232 211L232 9.33333L214 9.33333L214 211L232 211Z" fill="black"/>
</svg>
